# xmcd
#
# Track frame offsets: 
#        150
#        18713
#        38575
#        60400
#        77350
#        97400
#        114400
#        136000
#        151750
#        175863
#
# Disc length: 2623 seconds
#
# Revision: 0
# Processed by: cddbd v1.5.2PL0 Copyright (c) Steve Scherf et al.
# Submitted via: ExactAudioCopy v0.95b4
#
DISCID=6f0a3d0a
DTITLE=鍾漢良 (Wallace Chung) - 奇蹟
DYEAR=1996
DGENRE=Pop
TTITLE0=奇蹟
TTITLE1=愛不釋手
TTITLE2=愛在水火間
TTITLE3=你的眼淚\讓我心碎
TTITLE4=苦笑
TTITLE5=念忘之間
TTITLE6=我不要你不快樂
TTITLE7=風吹汗涼
TTITLE8=我用真心填滿你的孤單
TTITLE9=捉摸不定
EXTD=
EXTT0=
EXTT1=
EXTT2=
EXTT3=
EXTT4=
EXTT5=
EXTT6=
EXTT7=
EXTT8=
EXTT9=
PLAYORDER=
